<?xml version="1.0" encoding="UTF-8" standalone="no"?>
<!-- Created with Inkscape (http://www.inkscape.org/) -->

<svg
   width="32"
   height="32"
   viewBox="0 0 8.4666667 8.4666667"
   version="1.1"
   id="svg1"
   xml:space="preserve"
   inkscape:export-filename="builder_user.svg"
   inkscape:export-xdpi="96"
   inkscape:export-ydpi="96"
   sodipodi:docname="marker_player_single_crossed.svg"
   inkscape:version="1.3.2 (091e20e, 2023-11-25, custom)"
   xmlns:inkscape="http://www.inkscape.org/namespaces/inkscape"
   xmlns:sodipodi="http://sodipodi.sourceforge.net/DTD/sodipodi-0.dtd"
   xmlns="http://www.w3.org/2000/svg"
   xmlns:svg="http://www.w3.org/2000/svg"><sodipodi:namedview
     id="namedview1"
     pagecolor="#ffffff"
     bordercolor="#000000"
     borderopacity="0.25"
     inkscape:showpageshadow="2"
     inkscape:pageopacity="0.0"
     inkscape:pagecheckerboard="0"
     inkscape:deskcolor="#d1d1d1"
     inkscape:document-units="mm"
     inkscape:zoom="11.560442"
     inkscape:cx="21.409216"
     inkscape:cy="30.275659"
     inkscape:window-width="2598"
     inkscape:window-height="1250"
     inkscape:window-x="2410"
     inkscape:window-y="42"
     inkscape:window-maximized="0"
     inkscape:current-layer="layer1" /><defs
     id="defs1" /><g
     inkscape:label="Layer 1"
     inkscape:groupmode="layer"
     id="layer1"
     transform="translate(-59.775621,-100.66601)"><g
       id="g2"
       transform="matrix(0.01121677,0,0,0.01121677,61.137343,101.96152)"
       style="fill:#000000;fill-opacity:1"><path
         d="M 301.258,256.01 502.645,54.645 c 12.501,-12.501 12.501,-32.769 0,-45.269 -12.501,-12.501 -32.769,-12.501 -45.269,0 v 0 L 256.01,210.762 54.645,9.376 c -12.501,-12.501 -32.769,-12.501 -45.269,0 -12.5,12.501 -12.501,32.769 0,45.269 L 210.762,256.01 9.376,457.376 c -12.501,12.501 -12.501,32.769 0,45.269 12.501,12.5 32.769,12.501 45.269,0 L 256.01,301.258 457.375,502.645 c 12.501,12.501 32.769,12.501 45.269,0 12.501,-12.501 12.501,-32.769 0,-45.269 z"
         id="path1-8"
         style="fill:#000000;fill-opacity:1" /></g></g></svg>
