<?xml version="1.0" encoding="UTF-8" standalone="no"?>
<!-- Created with Inkscape (http://www.inkscape.org/) -->

<svg
   width="32"
   height="32"
   viewBox="0 0 8.4666665 8.4666666"
   version="1.1"
   id="svg1"
   xml:space="preserve"
   inkscape:export-filename="builder_user.svg"
   inkscape:export-xdpi="96"
   inkscape:export-ydpi="96"
   inkscape:version="1.3.2 (091e20e, 2023-11-25, custom)"
   sodipodi:docname="player_current_in_group.svg"
   xmlns:inkscape="http://www.inkscape.org/namespaces/inkscape"
   xmlns:sodipodi="http://sodipodi.sourceforge.net/DTD/sodipodi-0.dtd"
   xmlns="http://www.w3.org/2000/svg"
   xmlns:svg="http://www.w3.org/2000/svg"><sodipodi:namedview
     id="namedview1"
     pagecolor="#ffffff"
     bordercolor="#000000"
     borderopacity="0.25"
     inkscape:showpageshadow="2"
     inkscape:pageopacity="0.0"
     inkscape:pagecheckerboard="true"
     inkscape:deskcolor="#d1d1d1"
     inkscape:document-units="mm"
     inkscape:zoom="9.4746032"
     inkscape:cx="2.7969509"
     inkscape:cy="16.201206"
     inkscape:window-width="2556"
     inkscape:window-height="1347"
     inkscape:window-x="961"
     inkscape:window-y="7"
     inkscape:window-maximized="0"
     inkscape:current-layer="layer1" /><defs
     id="defs1" /><g
     inkscape:label="Layer 1"
     inkscape:groupmode="layer"
     id="layer1"><path
       style="fill:#000000;fill-opacity:1;stroke:#ffffff;stroke-width:0.129518;stroke-dasharray:none;stroke-opacity:1"
       d="M 1.1400275,6.4116638 C 0.97919072,6.376012 0.84968854,6.2772313 0.7770332,6.1347807 0.72123589,6.0253793 0.70669299,5.92846 0.72252071,5.7714599 0.74030349,5.5950579 0.77755194,5.4596408 0.8513353,5.3031467 1.0271463,4.9302544 1.3540081,4.6537636 1.7460067,4.546347 1.8657622,4.5135315 1.8704402,4.5025259 1.7957418,4.4293452 1.6705157,4.3066633 1.5739424,4.1556239 1.5163529,3.9923827 1.463246,3.8418414 1.4547472,3.7869798 1.4542593,3.5914603 1.4538671,3.4345681 1.4560651,3.4039159 1.4730799,3.3278871 1.5679491,2.9041069 1.8564543,2.5918583 2.2500672,2.4869582 c 0.07044,-0.01877 0.094807,-0.021069 0.2235638,-0.021069 0.1287573,0 0.1531241,0.00229 0.2235639,0.021069 0.3933734,0.1048354 0.6821766,0.4174056 0.7769874,0.8409289 0.026107,0.1166135 0.028056,0.3827051 0.00368,0.4989125 -0.048945,0.2331171 -0.1616457,0.4412148 -0.326322,0.6025456 -0.07429,0.072781 -0.069558,0.084632 0.046152,0.1155974 C 3.7547243,4.6940148 4.1656048,5.1846857 4.224759,5.7714599 4.240588,5.92846 4.226019,6.0253793 4.170247,6.1347807 4.106888,6.2590023 4.0036636,6.3473092 3.8641473,6.3966417 l -0.065154,0.023039 -1.3046978,0.00156 c -1.0595093,0.00118 -1.314007,-5.804e-4 -1.354242,-0.00948 z"
       id="path2-7"
       inkscape:export-filename="player_multi.svg"
       inkscape:export-xdpi="96"
       inkscape:export-ydpi="96" /></g></svg>
