<?xml version="1.0" encoding="UTF-8" standalone="no"?>
<!-- Created with Inkscape (http://www.inkscape.org/) -->

<svg
   width="32"
   height="32"
   viewBox="0 0 8.4666665 8.4666666"
   version="1.1"
   id="svg1"
   xml:space="preserve"
   inkscape:export-filename="builder_user.svg"
   inkscape:export-xdpi="96"
   inkscape:export-ydpi="96"
   inkscape:version="1.3.2 (091e20e, 2023-11-25, custom)"
   sodipodi:docname="player_multi_white.svg"
   xmlns:inkscape="http://www.inkscape.org/namespaces/inkscape"
   xmlns:sodipodi="http://sodipodi.sourceforge.net/DTD/sodipodi-0.dtd"
   xmlns="http://www.w3.org/2000/svg"
   xmlns:svg="http://www.w3.org/2000/svg"><sodipodi:namedview
     id="namedview1"
     pagecolor="#ffffff"
     bordercolor="#000000"
     borderopacity="0.25"
     inkscape:showpageshadow="2"
     inkscape:pageopacity="0.0"
     inkscape:pagecheckerboard="0"
     inkscape:deskcolor="#d1d1d1"
     inkscape:document-units="mm"
     inkscape:zoom="26.798225"
     inkscape:cx="15.355495"
     inkscape:cy="11.922431"
     inkscape:window-width="2556"
     inkscape:window-height="1347"
     inkscape:window-x="2327"
     inkscape:window-y="0"
     inkscape:window-maximized="0"
     inkscape:current-layer="layer1" /><defs
     id="defs1" /><g
     inkscape:label="Layer 1"
     inkscape:groupmode="layer"
     id="layer1"><path
       style="fill:#ffffff;fill-opacity:1;stroke:#000000;stroke-width:0.129518;stroke-dasharray:none;stroke-opacity:1"
       d="M 2.8788865,5.0055337 C 2.7180504,4.9698817 2.5885475,4.8710993 2.5158923,4.7286507 2.4600953,4.6192491 2.4455523,4.5223298 2.4613793,4.3653297 2.4791623,4.1889258 2.5164103,4.0535087 2.5901945,3.8970167 2.7660055,3.5241242 3.0928667,3.2476334 3.4848659,3.1402169 3.6046214,3.1074009 3.6092994,3.0963959 3.534601,3.0232151 3.4093744,2.9005332 3.3128016,2.7494937 3.2552121,2.5862525 3.2021051,2.4357112 3.1936058,2.3808497 3.1931179,2.1853282 3.1927258,2.028438 3.1949279,1.9977856 3.2119379,1.921757 3.306807,1.4979749 3.5953124,1.1857281 3.9889252,1.080828 c 0.07044,-0.01877 0.094806,-0.021069 0.2235639,-0.021069 0.1287572,0 0.153124,0.0023 0.2235638,0.021069 0.3933728,0.1048354 0.682176,0.4174058 0.7769868,0.840929 0.026107,0.1166134 0.028055,0.3827031 0.00368,0.4989125 -0.048945,0.2331171 -0.1616451,0.4412148 -0.3263213,0.6025456 -0.074291,0.072781 -0.069559,0.084629 0.046152,0.1155974 0.5570314,0.1490703 0.9679123,0.6397411 1.0270671,1.2265172 0.015829,0.1570001 0.00133,0.2539194 -0.054512,0.363321 -0.063359,0.1242215 -0.166582,0.2125264 -0.3060986,0.2618608 l -0.065153,0.023039 -1.3046978,0.00156 C 3.173647,5.0162905 2.9191485,5.0145285 2.878914,5.0056205 Z"
       id="path2"
       inkscape:export-filename="builder_user_2.svg"
       inkscape:export-xdpi="96"
       inkscape:export-ydpi="96" /><path
       style="fill:#000000;fill-opacity:1;stroke:#ffffff;stroke-width:0.129518;stroke-dasharray:none;stroke-opacity:1"
       d="M 1.1400275,6.4116638 C 0.97919072,6.376012 0.84968854,6.2772313 0.7770332,6.1347807 0.72123589,6.0253793 0.70669299,5.92846 0.72252071,5.7714599 0.74030349,5.5950579 0.77755194,5.4596408 0.8513353,5.3031467 1.0271463,4.9302544 1.3540081,4.6537636 1.7460067,4.546347 1.8657622,4.5135315 1.8704402,4.5025259 1.7957418,4.4293452 1.6705157,4.3066633 1.5739424,4.1556239 1.5163529,3.9923827 1.463246,3.8418414 1.4547472,3.7869798 1.4542593,3.5914603 1.4538671,3.4345681 1.4560651,3.4039159 1.4730799,3.3278871 1.5679491,2.9041069 1.8564543,2.5918583 2.2500672,2.4869582 c 0.07044,-0.01877 0.094807,-0.021069 0.2235638,-0.021069 0.1287573,0 0.1531241,0.00229 0.2235639,0.021069 0.3933734,0.1048354 0.6821766,0.4174056 0.7769874,0.8409289 0.026107,0.1166135 0.028056,0.3827051 0.00368,0.4989125 -0.048945,0.2331171 -0.1616457,0.4412148 -0.326322,0.6025456 -0.07429,0.072781 -0.069558,0.084632 0.046152,0.1155974 C 3.7547243,4.6940148 4.1656048,5.1846857 4.224759,5.7714599 4.240588,5.92846 4.226019,6.0253793 4.170247,6.1347807 4.106888,6.2590023 4.0036636,6.3473092 3.8641473,6.3966417 l -0.065154,0.023039 -1.3046978,0.00156 c -1.0595093,0.00118 -1.314007,-5.804e-4 -1.354242,-0.00948 z"
       id="path2-7"
       inkscape:export-filename="player_multi.svg"
       inkscape:export-xdpi="96"
       inkscape:export-ydpi="96" /><path
       style="fill:#ffffff;fill-opacity:1;stroke:#000000;stroke-width:0.129518;stroke-dasharray:none;stroke-opacity:1"
       d="M 4.6594169,6.4116638 C 4.49858,6.376012 4.3690773,6.2772313 4.2964225,6.1347807 4.2406252,6.0253793 4.2260824,5.92846 4.2419101,5.7714599 4.2596929,5.5950579 4.2969413,5.4596408 4.3707246,5.3031467 4.5465356,4.9302544 4.8733974,4.6537636 5.265396,4.546347 5.3851509,4.5135315 5.3898295,4.5025259 5.315131,4.4293452 5.1899044,4.3066633 5.0933317,4.1556239 5.0357422,3.9923827 4.9826353,3.8418414 4.9741359,3.7869798 4.973648,3.5914603 4.973236,3.4345681 4.9754615,3.4039159 4.992462,3.3278871 5.0873313,2.9041069 5.3758365,2.5918583 5.7694492,2.4869582 c 0.07044,-0.01877 0.094807,-0.021069 0.2235644,-0.021069 0.1287567,0 0.1531241,0.00229 0.2235638,0.021069 0.3933729,0.1048354 0.6821761,0.4174056 0.7769868,0.8409289 0.026107,0.1166135 0.028056,0.3827051 0.00368,0.4989125 -0.048946,0.2331171 -0.1616467,0.4412148 -0.3263235,0.6025456 -0.07429,0.072781 -0.069558,0.084632 0.046152,0.1155974 C 7.2741047,4.6940148 7.6849858,5.1846857 7.74414,5.7714599 7.759968,5.92846 7.74545,6.0253793 7.689626,6.1347807 7.626268,6.2590023 7.5230448,6.3473092 7.3835287,6.3966417 l -0.065156,0.023039 -1.3046982,0.00156 C 4.9541466,6.422425 4.6996488,6.4206603 4.6594144,6.4117558 Z"
       id="path2-7-6"
       inkscape:export-filename="builder_user_2.svg"
       inkscape:export-xdpi="96"
       inkscape:export-ydpi="96" /></g></svg>
