<?xml version="1.0" encoding="UTF-8" standalone="no"?>
<!-- Created with Inkscape (http://www.inkscape.org/) -->

<svg
   width="32"
   height="32"
   viewBox="0 0 8.4666667 8.4666667"
   version="1.1"
   id="svg1"
   xml:space="preserve"
   inkscape:export-filename="builder_user.svg"
   inkscape:export-xdpi="96"
   inkscape:export-ydpi="96"
   sodipodi:docname="player_single_2_stroke.svg"
   inkscape:version="1.3.2 (091e20e, 2023-11-25, custom)"
   xmlns:inkscape="http://www.inkscape.org/namespaces/inkscape"
   xmlns:sodipodi="http://sodipodi.sourceforge.net/DTD/sodipodi-0.dtd"
   xmlns="http://www.w3.org/2000/svg"
   xmlns:svg="http://www.w3.org/2000/svg"><sodipodi:namedview
     id="namedview1"
     pagecolor="#ffffff"
     bordercolor="#000000"
     borderopacity="0.25"
     inkscape:showpageshadow="2"
     inkscape:pageopacity="0.0"
     inkscape:pagecheckerboard="true"
     inkscape:deskcolor="#d1d1d1"
     inkscape:document-units="mm"
     inkscape:zoom="11.560442"
     inkscape:cx="21.409216"
     inkscape:cy="30.275659"
     inkscape:window-width="2598"
     inkscape:window-height="1250"
     inkscape:window-x="466"
     inkscape:window-y="93"
     inkscape:window-maximized="0"
     inkscape:current-layer="layer1" /><defs
     id="defs1" /><g
     inkscape:label="Layer 1"
     inkscape:groupmode="layer"
     id="layer1"
     transform="translate(-59.775621,-100.66601)"><path
       style="fill:none;stroke:#ffffff;stroke-width:0.4;stroke-dasharray:none;fill-opacity:1;stroke-opacity:1"
       d="m 62.042044,107.73962 c -0.347423,-0.0769 -0.593671,-0.35855 -0.622519,-0.71174 -0.0089,-0.10899 0.01122,-0.32948 0.04367,-0.47845 0.162693,-0.74681 0.730777,-1.35277 1.460688,-1.55807 0.190662,-0.0536 0.197155,-0.067 0.08557,-0.17635 -0.07503,-0.0735 -0.1986,-0.22606 -0.257048,-0.31734 -0.09255,-0.14456 -0.183222,-0.37555 -0.224389,-0.57161 -0.03599,-0.17146 -0.03312,-0.56403 0.0054,-0.73607 0.150723,-0.67329 0.648398,-1.16838 1.269051,-1.26249 0.781695,-0.11853 1.502912,0.43059 1.688874,1.28586 0.03202,0.14727 0.03244,0.55785 7.69e-4,0.7066 -0.07198,0.33759 -0.218373,0.61781 -0.448519,0.85856 -0.05945,0.0622 -0.108082,0.12128 -0.108082,0.13134 0,0.03 0.02872,0.0453 0.142316,0.0757 0.824207,0.22056 1.433502,0.95093 1.51535,1.81647 0.02207,0.23352 0.0016,0.3681 -0.08049,0.52909 -0.09347,0.18327 -0.245767,0.31356 -0.451602,0.38634 l -0.09612,0.034 -1.92488,0.002 c -1.563141,0.002 -1.938613,-8.3e-4 -1.997973,-0.014 z"
       id="path1" /></g></svg>
