<?xml version="1.0" encoding="UTF-8" standalone="no"?>
<!-- Created with Inkscape (http://www.inkscape.org/) -->

<svg
   width="512"
   height="420"
   viewBox="0 0 135.46666 111.12504"
   version="1.1"
   id="svg1"
   xml:space="preserve"
   inkscape:export-filename="players_group.png"
   inkscape:export-xdpi="96"
   inkscape:export-ydpi="96"
   inkscape:version="1.3.2 (091e20e, 2023-11-25, custom)"
   sodipodi:docname="players_group.svg"
   xmlns:inkscape="http://www.inkscape.org/namespaces/inkscape"
   xmlns:sodipodi="http://sodipodi.sourceforge.net/DTD/sodipodi-0.dtd"
   xmlns="http://www.w3.org/2000/svg"
   xmlns:svg="http://www.w3.org/2000/svg"><sodipodi:namedview
     id="namedview1"
     pagecolor="#ffffff"
     bordercolor="#000000"
     borderopacity="0.25"
     inkscape:showpageshadow="2"
     inkscape:pageopacity="0.0"
     inkscape:pagecheckerboard="true"
     inkscape:deskcolor="#d1d1d1"
     inkscape:document-units="mm"
     inkscape:zoom="0.83744453"
     inkscape:cx="663.92457"
     inkscape:cy="5.3734902"
     inkscape:window-width="2556"
     inkscape:window-height="1347"
     inkscape:window-x="1706"
     inkscape:window-y="70"
     inkscape:window-maximized="0"
     inkscape:current-layer="layer1" /><defs
     id="defs1" /><g
     inkscape:label="Layer 1"
     inkscape:groupmode="layer"
     id="layer1"><path
       style="fill:#bc180a;fill-opacity:1;stroke:#000000;stroke-width:3.175;stroke-dasharray:none;stroke-opacity:1"
       d="m 42.115848,79.485782 c -3.041996,-0.674309 -5.491366,-2.542643 -6.86554,-5.236863 -1.055324,-2.069182 -1.330385,-3.902278 -1.031039,-6.871721 0.336341,-3.336439 1.040836,-5.897668 2.436364,-8.8575 3.325225,-7.052753 9.507358,-12.282199 16.921487,-14.313835 2.265012,-0.62067 2.35349,-0.828814 0.940672,-2.212929 -2.36849,-2.320361 -4.195033,-5.177066 -5.28426,-8.264551 -1.004446,-2.847283 -1.165199,-3.884913 -1.174427,-7.582935 -0.0074,-2.967364 0.03423,-3.547112 0.355955,-4.985089 1.794319,-8.01526 7.251005,-13.9209821 14.695653,-15.9050242 1.332277,-0.3550089 1.793126,-0.3984913 4.228406,-0.3984913 2.435267,0 2.896131,0.043501 4.228404,0.3984913 7.440109,1.9828184 12.902427,7.8946612 14.695644,15.9050242 0.493778,2.205583 0.530622,7.238306 0.0696,9.436248 -0.925728,4.409091 -3.057296,8.344975 -6.171922,11.396327 -1.405112,1.376553 -1.315613,1.600642 0.872902,2.186367 10.535489,2.819461 18.306739,12.099829 19.425573,23.197897 0.29939,2.969443 0.0252,4.802539 -1.031023,6.871721 -1.198347,2.34948 -3.150669,4.019646 -5.789435,4.952739 l -1.23228,0.435751 -24.676577,0.02951 c -20.039167,0.02232 -24.852659,-0.01101 -25.613639,-0.17949 z"
       id="path2"
       inkscape:export-filename="players_group.png"
       inkscape:export-xdpi="96"
       inkscape:export-ydpi="96" /><path
       style="fill:#d8b812;fill-opacity:1;stroke:#000000;stroke-width:3.175;stroke-dasharray:none;stroke-opacity:1"
       d="m 9.2277052,106.08081 c -3.042008,-0.6743 -5.4913648,-2.5426 -6.8655413,-5.23686 -1.0553299,-2.069181 -1.330389,-3.902277 -1.0310293,-6.87172 0.336337,-3.336403 1.0408405,-5.897632 2.436352,-8.857504 3.3252249,-7.052749 9.5073694,-12.282195 16.9214874,-14.313833 2.265011,-0.62066 2.353489,-0.828816 0.940671,-2.212929 -2.36848,-2.320361 -4.195033,-5.177065 -5.284259,-8.264549 -1.004445,-2.847283 -1.165188,-3.884915 -1.174416,-7.582899 -0.0074,-2.967402 0.03415,-3.547147 0.355966,-4.985127 1.794321,-8.015224 7.251003,-13.92098 14.695653,-15.905022 1.332277,-0.355009 1.793145,-0.398491 4.228404,-0.398491 2.435269,0 2.896134,0.04331 4.228406,0.398491 7.440121,1.982819 12.902439,7.894657 14.695655,15.905022 0.493779,2.205585 0.530641,7.238344 0.0696,9.436248 -0.925728,4.409092 -3.057308,8.344975 -6.171935,11.396327 -1.405094,1.376553 -1.315595,1.600699 0.872902,2.186367 10.535499,2.819497 18.306743,12.099867 19.425563,23.197899 0.299384,2.969443 0.02383,4.802539 -1.03102,6.87172 -1.198348,2.34948 -3.150697,4.01969 -5.789457,4.95274 l -1.232299,0.43575 -24.676577,0.0295 c -20.039171,0.0223 -24.8526467,-0.011 -25.6136371,-0.1793 z"
       id="path2-7"
       inkscape:export-filename="player_multi.svg"
       inkscape:export-xdpi="96"
       inkscape:export-ydpi="96" /><path
       style="fill:#468ac6;fill-opacity:1;stroke:#000000;stroke-width:3.175;stroke-dasharray:none;stroke-opacity:1"
       d="m 75.792148,106.08081 c -3.04201,-0.6743 -5.491377,-2.5426 -6.865543,-5.23686 -1.05533,-2.069181 -1.330387,-3.902277 -1.031028,-6.87172 0.336337,-3.336403 1.04084,-5.897632 2.43635,-8.857504 3.325225,-7.052749 9.50737,-12.282195 16.921488,-14.313833 2.265,-0.62066 2.353489,-0.828816 0.940669,-2.212929 -2.36849,-2.320361 -4.19503,-5.177065 -5.284257,-8.264549 -1.004445,-2.847283 -1.165199,-3.884915 -1.174427,-7.582899 -0.0078,-2.967402 0.0343,-3.547147 0.355841,-4.985127 1.794323,-8.015224 7.251005,-13.92098 14.695652,-15.905022 1.332276,-0.355009 1.793144,-0.398491 4.228417,-0.398491 2.43526,0 2.89613,0.04331 4.2284,0.398491 7.44012,1.982819 12.90243,7.894657 14.69565,15.905022 0.49378,2.205585 0.53064,7.238344 0.0696,9.436248 -0.92575,4.409092 -3.05733,8.344975 -6.17196,11.396327 -1.4051,1.376553 -1.3156,1.600699 0.8729,2.186367 10.5355,2.819497 18.30675,12.099867 19.42557,23.197899 0.29937,2.969443 0.0248,4.802539 -1.03105,6.87172 -1.19833,2.34948 -3.15066,4.01969 -5.78942,4.95274 l -1.23233,0.43575 -24.67659,0.0295 c -20.039522,0.0224 -24.853001,-0.011 -25.613979,-0.1794 z"
       id="path2-7-6"
       inkscape:export-filename="builder_user_2.svg"
       inkscape:export-xdpi="96"
       inkscape:export-ydpi="96" /></g></svg>
